<?xml version="1.0" encoding="UTF-8"?>
<svg version="1.1" viewBox="0 0 2048 1215" width="300" height="178" xmlns="http://www.w3.org/2000/svg">
<path transform="translate(1102,6)" d="m0 0h10l10 3 6 4 5 5 6 8 5 10 4 14 2 12v31l-5 29-7 27-11 32-11 25-10 18-11 17 3 5 5 6 8 5 4 1h10l11-4 11-6 10-8 1-2v-21l3-17 5-13 6-11 9-11 12-10 14-7 11-3 8-1h16l14 3 8 5 8 7 3 3 3-10 6-7 7-3h15l6 3 4 6 1 11-4 40-1 32v31l7-2 17-12 12-9 2-4v-13l5-23 8-19 7-11 8-10 12-9 10-5 14-3h15l12 3 8 7 2 4v15l10 4 14 9 6 2h8l11-7 8-7 7-5 4-1h13l10-8 14-8 16-5h15l12 4h2l-1-15v-17l2-28 5-28 7-21 7-11 8-7 8-2 9 3 7 8 3 9v40l-3 29-6 51-7 44-4 19-1 9 3 13 4 6 7 3h9l10-4 13-10 3-4 5-22 9-19 9-13 9-10 9-8 14-9 12-5 14-2h12l11 3 14 7 14 3 6 3 2 4v10l-6 38-4 20v9l4 7 3 2h8l10-4 15-10 3-4 2-22 4-15 5-13 7-13 10-13 11-9 12-6 6-2 8-1h15l9 2 8 5 4 5 1 18 9 3 17 10 3 1h9l9-6 14-11 8-3 9 1 5 5 4 11-4 12-7 11-9 8-15 6-9 2-12 1 1 5v18l-7 16-9 12-10 9-10 6-16 5-5 1h-26l-10-3-9-5-10-8-4-4-5 1-11 8-13 6-16 4h-19l-13-4-9-6-7-7-3-1-8 6-12 6-16 4h-16l-13-4-10-6-6-5-5 2-14 9-13 5-5 1h-19l-11-4-10-9-6-8v-2l-11 9-10 7-12 5-11 2h-12l-13-3-10-5-12-11-7-9-6-12-4-16-1-8 1-10-8 1-14 2-2 1 1 15-4 15-7 13-9 10-8 7-14 7-16 4-14 1-16-2-12-5-9-7-7-7-5 1-10 7-16 8-24 11-1 3v23l-3 26-4 14-8 15-9 10-9 6-13 4-12 1-12-2-10-4-9-7-7-8-7-14-1-4v-16l4-13 5-9 9-11 7-7 13-10 19-12 4-3 1-9-5 1-15 8-13 4-7 1h-19l-13-3-12-6-9-7-4 1-9 7-15 8-19 5h-19l-10-3-10-5-10-8-8-8-4 2-8 8-14 10-6 2-5-1h-7l-6 2-7 1h-19l-13-4-9-6-8-8-6 3-5 4-11 5-16 4h-16l-14-4-9-6-9-9-6-10-4-14v-18l5-19 6-14 7-11 9-11 9-9 13-9 14-7 15-3h16l10 3 13 7 17 4 4 3 1 9-3 25-7 40 1 8 4 6 2 1h8l9-4 12-7 10-7 5-3-1-8-7-27-3-20-1-12v-43l3-25 5-23 8-24 8-16 8-12 9-10 11-7zm-1 49-8 7-7 14-5 21-3 26v41l2 30 3 2 6-10 7-15 6-16 6-23 3-21 1-11v-24l-2-10-5-10zm126 127-9 3-8 7-6 10-3 10v16l4 10 6 8 10 5h13l14-7 6-5 9-12 6-14 4-20v-8l-6 2-7 3h-8l-9-4-6-3zm196 3-16 8-9 8-7 14-2 9v10l3 10 4 6 8 7 7 2h10l11-4 9-8 5-11 1-3v-9l-4-6-14-11-3-5-1-13zm156 1-10 5-9 8-6 11-4 15v9l3 10 4 6 6 5 9 1 12-6 7-7 8-13 5-13v-14l-5-10-6-5-5-2zm348 0-14 8-7 7-7 14-2 6v15l4 10 6 8 7 4 5 1h10l9-3 8-6 6-9 3-10v-7l-4-6-10-7-5-5-3-6-1-12-1-2zm-975 6-13 4-13 9-7 9-6 12-1 10 3 9 4 5 4 2h12l9-4 10-6 6-5 6-9 2-6 1-8v-14l-3-7-2-1zm814 0-15 5-11 8-8 10-5 10-1 3v8l3 9 8 7 7 1 10-3 11-6 10-9 6-10 2-12v-11l-2-7-3-3zm-497 135-7 6-6 10-2 8 1 9 2 3h7l4-5 2-8 2-17v-5z" fill="#47749D"/>
<path transform="translate(1086,515)" d="m0 0h40l20 4 18 6 21 11 13 9 11 9 13 12 11 14 10 15 12 25 7 22 4 20 1 7 1 33 16 9 7 7 8 13 6 18 1 8v12l-2 12h16l16 3 16 8 9 7 8 8 8 13 5 14 1 5v17l-3 11-7 14-7 9-8 8-7 4h-2l11 33 4 20 1 9v35l-3 21-5 20-9 21-9 16-4 6 2 21-2 12-8 16-9 11-12 10-19 10-18 6-19 4-18 2h-26l-26-4-24-8-17-9-13-10-4-2-26-4-19-5-20-7-18-8h-4l-6 11-11 13-11 10-15 9-15 6-19 5-19 3-10 1-5 4-7 8-9 8-14 8-15 5-13 2h-22l-16-3-15-6-10-6-10-8-8-10-8-16-3-10v-17l-24-11-18-11-14-11-14-13-9-11-10-14-11-21-7-19-5-23-1-9v-20l2-18 4-17 6-17 8-16 10-16 9-11 9-10 8-8 15-11 18-11 23-10 1-5v-35l4-20 5-17 7-16 12-20 10-13 19-19 14-10 14-8 16-7 18-5 14-2h32l8 1 2-10 8-23 8-17 12-19 8-10 9-10 10-10 16-12 19-11 19-8 21-5zm9 23-18 3-21 7-19 10-14 10-12 11-9 10-9 13-9 16-8 19-6 18 5 3 23 10 18 10 14 10 10 9 11 11 10 14 9 17 6 18 4 21 1 28-2 5-7 4-4 1-8-5-2-6-1-22-2-14-5-17-8-16-9-13-14-14-14-10-16-9-21-9-18-5-12-2h-28l-16 3-17 6-16 8-11 8-12 11-9 9-10 14-11 21-6 18-3 17-1 10v15l2 18v9l-1 3-9 3-20 8-17 9-13 9-14 12-11 12-10 15-8 16-6 15-4 17-1 7v26l3 19 7 21 9 17 10 14 12 13 11 10 15 10 15 8 25 10 6 4 2 2-1 10-2 8 1 13 6 12 9 10 13 8 14 4 6 1h16l15-3 14-7 12-11 9-12 4-3h22l19-3 17-6 16-9 13-12 8-10 3-6-9-7-11-7-14-11-8-7-7-8-7-10-9-16-10-24-9-27-5-22 1-4 8-5 8-1 3 3 6 16 9 29 10 25 8 14 8 10 9 9 15 11 18 11 27 15 19 8 19 6 16 3 21 3 10 5 11 9 17 9 15 5 17 3 12 1h17l19-2 19-5 15-6 12-8 7-6 7-11 3-9-1-9-5-12 1-5 13-17 8-15 6-17 5-22 1-8v-34l-4-23-8-24-8-18-1-7 4-4 16-9 10-9 6-10 2-6v-17l-5-12-7-9-10-7-11-4-16-1-12 2-9 2-6-7-3-7v-12l3-12v-14l-4-14-4-8-4-5-6-3-16-2-4-3-1-4v-9l1-8v-22l-3-23-6-22-8-18-8-15-10-13-9-10-8-8-15-11-12-7-20-8-15-4-17-2z" fill="#47749D"/>
<path transform="translate(572,23)" d="m0 0 7 1 8 5 6 12 1 5v27l-4 46-8 62-6 35-3 13v9l3 10 4 6 6 3h10l7-3 11-7 8-7 1-8-1-8v-10l4-18 5-12 7-11 8-9 10-7 9-4 10-2h20l12 3 9 5 9 9 7 14 2 8v15l-4 15-6 12-7 9-6 7-11 8-2 4 4 1h18l15-4 17-9 11-8 9-5h7l10 6 4 5 1 6-4 11-9 11-10 8-16 8-21 6-12 2-13 1h-10l-18-2-14-5-10-5-11-9-3-3-5 1-13 10-8 5-15 5-5 1h-17l-10-3-9-7-6-8-4-4-11 9-10 7-10 4-13 2-16-1-12-4-9-6-8-7-9-13-5-11-3-12v-26l3-12 6-15 8-12 11-12 13-9 10-5 14-4h14l15 5-1-6v-35l3-30 4-20 5-15 7-13 6-7zm-55 163-9 4-8 7-4 5-5 10-3 12v12l3 10 5 6 5 3 8 1 9-4 8-7 8-10 7-15 1-4v-11l-4-10-4-5-5-3-4-1zm163 4-5 3-7 7-5 13-1 7v9l2 7 3 3 6-1 8-7 8-9 5-11 1-3v-9l-4-6-5-3z" fill="#47749D"/>
<path transform="translate(114,33)" d="m0 0h15l19 3 12 4 14 8 11 9 9 12 7 16 3 17v19l-2 14-5 16-8 16-9 12-12 13-13 10-16 9-19 8-17 5-23 4-18 2v29l1 15v20l-4 6-8 5-3 1h-14l-5-3-5-7-4-16-1-9v-43l-10-8-9-6v-16l10-6 10-3-1-37-3-38-4-27-4-25 1-9 6-9 8-5 5-1h8l9 3 4 5 3 9 1 12 4-2 11-12 10-8 11-6 8-3zm5 37-14 3-8 4-9 7-9 12-8 16-5 16-3 21-2 27v16h8l28-5 18-6 17-9 9-7 10-10 7-12 4-13 1-6v-21l-4-12-6-10-7-6-9-4-7-1z" fill="#47749D"/>
<path transform="translate(246,151)" d="m0 0h22l12 3 9 5 7 6 6 9 4 10 1 4v19l-4 14-7 13-8 10-9 8-8 5 1 3 4 1h17l12-3 10-4 19-12 10-6 9-1 8 5 5 6 1 2v8l-7 12-4 5h-2v2l-13 9-15 7-19 5-11 2-13 1h-11l-17-2-15-5-11-6-13-11-8-11-7-14-4-13-1-6v-20l4-17 8-16 8-10 9-8 10-6zm9 39-5 2-6 5-7 14-1 5v15l3 7 3 2 6-3 9-8 9-14 2-5v-11l-5-8z" fill="#47749D"/>
<path transform="translate(1190,837)" d="m0 0 17 2 18 6 12 8 4 5 1 7-5 8-3 2h-7l-19-9-12-3h-12l-13 3-11 6-10 9-6 10-4 13-3 11-3 5-8 1-7-3-4-5-1-7 3-15 1-7-5-5-4-2h-12l-8 4-6 7-2 5v8l4 12v7l-4 4-18 7-8 7-5 10-1 5v7l3 9 6 8 8 5 18 6 6 5v8l-4 6-5 3-13-1-11-3-8-4-10-8-9-13-4-10-2-11v-10l3-13 6-11 8-10 14-9 1-4v-11l4-14 7-11 7-7 16-8 5-1h15l12 4 10 6 4-2 8-7 14-8 11-4 10-2z" fill="#47749D"/>
<path transform="translate(1753,88)" d="m0 0 14 2 20 7h8l16-8 5 2 5 6 2 9-3 8-9 10-8 4-5 1h-10l-15-4-7-2-12-1-10 4-6 3-7-1-5-6-1-8 4-9 9-10 8-5z" fill="#47749D"/>
<path transform="translate(278,83)" d="m0 0 9 1 6 5 4 8-3 7-8 10-12 10-14 8-10 4h-6l-5-4-1-7 6-10 11-14 12-12z" fill="#47749D"/>
</svg>
